# Blender 5.1.2
# www.blender.org
mtllib carts_cart.mtl
o Cube
v -4.999998 -5.000000 -5.000002
v 5.000000 -5.000000 -5.000000
v 5.000000 -5.000000 5.000000
v -5.000000 -5.000000 4.999999
v 5.000000 -5.000000 5.000000
v 5.000000 -5.000000 -5.000000
v 5.000002 5.000000 -4.999997
v 4.999997 5.000000 5.000003
v -5.000000 5.000000 -5.000000
v -4.999998 -5.000000 -5.000002
v -5.000000 -5.000000 4.999999
v -5.000002 5.000000 4.999998
v 5.000002 5.000000 -4.999997
v 5.000000 -5.000000 -5.000000
v -4.999998 -5.000000 -5.000002
v -5.000000 5.000000 -5.000000
v 4.999997 5.000000 5.000003
v -5.000002 5.000000 4.999998
v -5.000000 -5.000000 4.999999
v 5.000000 -5.000000 5.000000
v -4.325000 -4.325000 -4.324999
v -4.324999 5.000000 -4.324998
v -4.325001 5.000000 4.325003
v -4.325000 -4.325000 4.325001
v 4.325000 -4.325000 4.325000
v 4.324999 5.000000 4.325001
v 4.324998 5.000000 -4.324999
v 4.324999 -4.325000 -4.325000
v 4.324999 -4.325000 -4.325000
v -4.325000 -4.325000 -4.324999
v -4.325000 -4.325000 4.325001
v 4.325000 -4.325000 4.325000
v 4.324999 -4.325000 -4.325000
v 4.324998 5.000000 -4.324999
v -4.324999 5.000000 -4.324998
v -4.325000 -4.325000 -4.324999
v 4.324999 5.000000 4.325001
v 4.325000 -4.325000 4.325000
v -4.325000 -4.325000 4.325001
v -4.325001 5.000000 4.325003
v 4.324999 5.000000 4.325001
v -4.325001 5.000000 4.325003
v -5.000002 5.000000 4.999998
v 4.999997 5.000000 5.000003
v 4.324999 5.000000 4.325001
v 4.999997 5.000000 5.000003
v 5.000002 5.000000 -4.999997
v 4.324998 5.000000 -4.324999
v 4.324998 5.000000 -4.324999
v 5.000002 5.000000 -4.999997
v -5.000000 5.000000 -5.000000
v -4.324999 5.000000 -4.324998
v -4.324999 5.000000 -4.324998
v -5.000000 5.000000 -5.000000
v -5.000002 5.000000 4.999998
v -4.325001 5.000000 4.325003
vn -0.0000 -1.0000 -0.0000
vn 1.0000 -0.0000 -0.0000
vn -1.0000 -0.0000 -0.0000
vn -0.0000 -0.0000 -1.0000
vn -0.0000 -0.0000 1.0000
vn -0.0000 1.0000 -0.0000
vt 0.500000 0.000000
vt -0.000000 0.500000
vt 0.500000 0.500000
vt -0.000000 0.000000
vt 0.500000 1.000000
vt 1.000000 0.500000
vt 1.000000 1.000000
vt 1.000000 0.000000
vt 0.468750 1.000000
vt 0.031250 0.531250
vt 0.031250 1.000000
vt 0.468750 0.531250
vt 0.468750 0.968750
vt 0.031250 0.968750
vt 0.000000 1.000000
vt -0.000000 1.000000
s 0
usemtl Brush.001
f 3/1/1 1/2/1 2/3/1
f 4/4/1 1/2/1 3/1/1
f 7/5/2 5/6/2 6/3/2
f 8/7/2 5/6/2 7/5/2
f 11/6/3 9/5/3 10/3/3
f 12/7/3 9/5/3 11/6/3
f 15/1/4 13/6/4 14/8/4
f 16/3/4 13/6/4 15/1/4
f 19/1/5 17/6/5 18/3/5
f 20/8/5 17/6/5 19/1/5
f 23/9/2 21/10/2 22/11/2
f 24/12/2 21/10/2 23/9/2
f 27/9/3 25/10/3 26/11/3
f 28/12/3 25/10/3 27/9/3
f 31/10/6 29/13/6 30/14/6
f 32/12/6 29/13/6 31/10/6
f 35/11/5 33/12/5 34/9/5
f 36/10/5 33/12/5 35/11/5
f 39/12/4 37/11/4 38/10/4
f 40/9/4 37/11/4 39/12/4
f 43/2/6 41/12/6 42/10/6
f 44/3/6 41/12/6 43/2/6
f 47/5/6 45/12/6 46/3/6
f 48/13/6 45/12/6 47/5/6
f 51/15/6 49/13/6 50/5/6
f 52/14/6 49/13/6 51/15/6
f 55/2/6 53/14/6 54/16/6
f 56/10/6 53/14/6 55/2/6
